<?xml version="1.0" standalone="no"?>
<!DOCTYPE svg PUBLIC "-//W3C//DTD SVG 1.1//EN" "http://www.w3.org/Graphics/SVG/1.1/DTD/svg11.dtd" >
<svg xmlns="http://www.w3.org/2000/svg" xmlns:xlink="http://www.w3.org/1999/xlink" version="1.1">
<metadata>
Created by FontForge 20200314 at (null) By www-data
Copyright 1990-1993 by Bitstream Inc.  All Rights Reserved.
</metadata>
<defs>
<font id="AvantGardeBkBT" horiz-adv-x="1024" >
  <font-face 
    font-family="AvantGarde Bk BT"
    font-weight="400"
    font-stretch="normal"
    units-per-em="2048"
    panose-1="0 0 4 0 0 0 0 0 0 0"
    ascent="1638"
    descent="-410"
    x-height="1100"
    cap-height="1456"
    bbox="-342 -483 2605 1972"
    underline-thickness="113"
    underline-position="-234"
    unicode-range="U+0020-F002"
  />
<missing-glyph 
d="M128 0v1972h768v-1972h-768zM256 128h512v1716h-512v-1716z" />
    <glyph glyph-name=".notdef" 
d="M128 0v1972h768v-1972h-768zM256 128h512v1716h-512v-1716z" />
    <glyph glyph-name=".null" horiz-adv-x="0" 
 />
    <glyph glyph-name="nonmarkingreturn" horiz-adv-x="578" 
 />
    <glyph glyph-name="space" unicode=" " horiz-adv-x="578" 
 />
    <glyph glyph-name="exclam" unicode="!" horiz-adv-x="588" 
d="M365 379h-142v1077h142v-1077zM365 0h-142v266h142v-266z" />
    <glyph glyph-name="quotedbl" unicode="&#x22;" horiz-adv-x="569" 
d="M473 1434v-553h-102v553h102zM199 1434v-553h-101v553h101z" />
    <glyph glyph-name="numbersign" unicode="#" horiz-adv-x="1575" 
d="M975 864h-266l-97 -276h267zM918 1454l-168 -483h264l172 483h127l-170 -483h315l-37 -107h-317l-98 -276h340l-37 -109h-340l-170 -479h-129l172 479h-269l-172 -479h-127l170 479h-327l39 109h325l101 276h-353l35 107h354l173 483h127z" />
    <glyph glyph-name="dollar" unicode="$" horiz-adv-x="1157" 
d="M152 432h139v-16q0 -287 284 -287q133 0 210 72.5t77 195.5q0 195 -309 297l-30 10q-189 62 -263 144q-72 79 -72 219q0 146 90 252.5t230 124.5v213h143v-213q307 -35 324 -365h-144v4q0 110 -66.5 176t-176.5 66q-119 0 -188.5 -68t-69.5 -182q0 -159 284 -257
q61 -21 91 -32q164 -60 233.5 -144.5t69.5 -221.5q0 -172 -98.5 -287t-258.5 -129v-246h-143v246q-160 17 -258 135t-98 293z" />
    <glyph glyph-name="percent" unicode="%" horiz-adv-x="1796" 
d="M219 1124q0 -94 66.5 -160.5t160.5 -66.5t160 66t66 161t-65.5 160.5t-160.5 65.5t-161 -66t-66 -160zM90 1126q0 150 104.5 254.5t254.5 104.5q149 0 254.5 -105t105.5 -254q0 -150 -105 -254t-255 -104q-151 0 -255 104t-104 254zM1229 1485h117l-779 -1514h-116z
M1114 330q0 -95 66.5 -161.5t160.5 -66.5q95 0 161.5 66.5t66.5 161.5q0 93 -66.5 159t-161.5 66t-161 -65.5t-66 -159.5zM987 330q0 149 104.5 253.5t254.5 104.5q149 0 253.5 -104.5t104.5 -253.5q0 -151 -104 -255t-254 -104q-151 0 -255 104t-104 255z" />
    <glyph glyph-name="ampersand" unicode="&#x26;" horiz-adv-x="1421" 
d="M555 883q225 88 225 264q0 85 -56.5 144t-135.5 59q-89 0 -145 -58t-56 -153q0 -122 168 -256zM889 371l-387 360q-221 -108 -221 -321q0 -131 78.5 -213t201.5 -82q184 0 328 256zM993 276q-139 -305 -440 -305q-175 0 -299.5 128t-124.5 311q0 131 75 244t202 171
q-96 85 -132 154t-36 162q0 143 103 242.5t253 99.5q136 0 236 -102.5t100 -239.5q0 -231 -279 -353l295 -272l172 453h156l-219 -555l325 -299l-90 -107z" />
    <glyph glyph-name="quotesingle" unicode="'" horiz-adv-x="295" 
d="M199 1434v-553h-101v553h101z" />
    <glyph glyph-name="parenleft" unicode="(" horiz-adv-x="541" 
d="M432 1485v-162q-93 -74 -128 -171q-38 -104 -38 -302v-657q0 -199 38 -303q35 -97 128 -171v-161q-307 162 -307 610v706q0 447 307 611z" />
    <glyph glyph-name="parenright" unicode=")" horiz-adv-x="541" 
d="M109 1485q307 -164 307 -611v-706q0 -448 -307 -610v161q92 74 128 171q37 104 37 303v657q0 199 -37 302q-36 97 -128 171v162z" />
    <glyph glyph-name="asterisk" unicode="*" 
d="M510 981l-182 -264l-107 74l201 251l-297 86l37 119l291 -96v305h114v-305l289 96l41 -119l-301 -86l205 -251l-105 -74z" />
    <glyph glyph-name="plus" unicode="+" horiz-adv-x="1706" 
d="M903 1221v-562h549v-98h-549v-561h-98v561h-551v98h551v562h98z" />
    <glyph glyph-name="comma" unicode="," horiz-adv-x="578" 
d="M248 -162h-144l156 428h143z" />
    <glyph glyph-name="hyphen" unicode="-" horiz-adv-x="659" 
d="M563 616v-133h-469v133h469z" />
    <glyph glyph-name="period" unicode="." horiz-adv-x="578" 
d="M360 0h-143v266h143v-266z" />
    <glyph glyph-name="slash" unicode="/" horiz-adv-x="569" 
d="M72 -190h-121l498 1646h120z" />
    <glyph glyph-name="zero" unicode="0" horiz-adv-x="1157" 
d="M227 481q0 -181 93 -282t258 -101q164 0 257 100t93 279v502q0 178 -93.5 278.5t-256.5 100.5q-165 0 -258 -101.5t-93 -283.5v-492zM86 512v432q0 137 20 213q18 69 66 133q148 197 406 197q230 0 361.5 -142.5t131.5 -392.5v-446q0 -220 -80 -332q-144 -203 -413 -203
q-254 0 -408 197q-84 107 -84 344z" />
    <glyph glyph-name="one" unicode="1" horiz-adv-x="1157" 
d="M676 0h-152v1331h-254v125h406v-1456z" />
    <glyph glyph-name="two" unicode="2" horiz-adv-x="1157" 
d="M1036 0h-903v141l516 490q149 142 202 229q50 81 50 174q0 138 -90 230t-227 92q-142 0 -227 -94.5t-85 -251.5q0 -6 1 -21.5t1 -19.5h-141v22q0 220 129.5 358t333.5 138q186 0 315 -134t129 -329q0 -221 -227 -430l-491 -453h714v-141z" />
    <glyph glyph-name="three" unicode="3" horiz-adv-x="1157" 
d="M254 442v-12q0 -143 89.5 -238.5t221.5 -95.5q143 0 235.5 94.5t92.5 241.5q0 340 -385 340q-45 0 -67 -2v121q22 -2 63 -2q289 0 289 237q0 102 -62 168t-156 66q-107 0 -168 -64.5t-63 -180.5h-133q9 170 109 270t262 100q148 0 253 -106t105 -253q0 -167 -141 -270
q239 -127 239 -410q0 -202 -133 -338.5t-332 -136.5q-213 0 -337 126t-127 345h145z" />
    <glyph glyph-name="four" unicode="4" horiz-adv-x="1157" 
d="M774 408l6 880l-542 -880h536zM911 0h-141v281h-682v127l660 1048h163v-1048h158v-127h-158v-281z" />
    <glyph glyph-name="five" unicode="5" horiz-adv-x="1157" 
d="M84 442h145q8 -142 111 -241t240 -99q147 0 248.5 110.5t101.5 272.5q0 164 -101.5 265.5t-265.5 101.5q-186 0 -301 -168l-110 51l129 721h657v-143h-535l-73 -406q120 86 258 86q213 0 349 -144t136 -368q0 -212 -145.5 -361t-352.5 -149q-197 0 -336 132.5t-155 338.5
z" />
    <glyph glyph-name="six" unicode="6" horiz-adv-x="1157" 
d="M586 825q-150 0 -251.5 -104t-101.5 -256q0 -154 104 -260.5t251 -106.5q144 0 240 103.5t96 261.5t-95.5 260t-242.5 102zM621 1456h178l-340 -526q94 22 157 22q198 0 327.5 -138t129.5 -347q0 -214 -141 -355t-357 -141q-211 0 -351 138t-140 342q0 175 180 452
q10 16 27 41z" />
    <glyph glyph-name="seven" unicode="7" horiz-adv-x="1157" 
d="M426 0h-160l576 1313h-637v143h803v-131z" />
    <glyph glyph-name="eight" unicode="8" horiz-adv-x="1157" 
d="M322 1122q0 -108 68.5 -175.5t178.5 -67.5q271 0 271 239q0 105 -72.5 171.5t-185.5 66.5q-111 0 -185.5 -67t-74.5 -167zM258 418q0 -138 90 -230t221 -92q143 0 235.5 93t92.5 235q0 146 -87 235t-230 89q-149 0 -235.5 -88.5t-86.5 -241.5zM334 813q-156 103 -156 287
q0 157 117 271t280 114q170 0 287 -110.5t117 -264.5q0 -196 -162 -297q227 -128 227 -369q0 -207 -133 -340t-342 -133q-191 0 -323.5 134.5t-132.5 328.5q0 237 221 379z" />
    <glyph glyph-name="nine" unicode="9" horiz-adv-x="1157" 
d="M571 633q150 0 251.5 104t101.5 256q0 154 -103.5 259.5t-251.5 105.5q-144 0 -240 -102.5t-96 -260.5t95.5 -260t242.5 -102zM537 0h-179l340 528q-94 -22 -157 -22q-198 0 -327.5 138t-129.5 347q0 215 140 355.5t356 140.5q211 0 352 -138t141 -341q0 -174 -180 -452
l-3 -4q-9 -14 -23 -37z" />
    <glyph glyph-name="colon" unicode=":" horiz-adv-x="588" 
d="M365 834h-142v266h142v-266zM365 0h-142v266h142v-266z" />
    <glyph glyph-name="semicolon" unicode=";" horiz-adv-x="588" 
d="M248 -162h-144l156 428h143zM365 1100v-266h-142v266h142z" />
    <glyph glyph-name="less" unicode="&#x3c;" horiz-adv-x="1706" 
d="M1442 1026l-1022 -416l1022 -413v-109l-1178 481v82l1178 484v-109z" />
    <glyph glyph-name="equal" unicode="=" horiz-adv-x="1706" 
d="M1452 473v-98h-1198v98h1198zM1452 846v-98h-1198v98h1198z" />
    <glyph glyph-name="greater" unicode="&#x3e;" horiz-adv-x="1706" 
d="M1442 651v-82l-1178 -481v109l1022 413l-1022 416v109z" />
    <glyph glyph-name="question" unicode="?" horiz-adv-x="948" 
d="M547 398l-144 -1q0 188 154 355q14 15 54 53q126 119 126 252q0 130 -70.5 204t-193.5 74q-268 0 -280 -323h-148q3 214 122.5 343.5t313.5 129.5q181 0 294.5 -120t113.5 -310q0 -187 -166 -335q-10 -8 -25 -22q-149 -138 -151 -300zM403 0v266h144v-266h-144z" />
    <glyph glyph-name="at" unicode="@" horiz-adv-x="2048" 
d="M1298 836l60 125h94l-139 -562q-17 -69 -17 -92q0 -92 107 -92q108 0 211 82q205 163 205 487q0 254 -198 417t-509 163q-350 0 -582 -199q-297 -254 -297 -653q0 -339 244 -537q215 -174 545 -174q354 0 635 193l39 -55q-294 -222 -654 -222q-381 0 -622 185
q-303 232 -303 635q0 417 338 696q268 221 659 221q339 0 557 -168q260 -201 260 -508q0 -352 -243 -542q-142 -111 -310 -111q-192 0 -192 151q0 3 1 14.5t1 14.5q-106 -180 -295 -180q-313 0 -313 328q0 230 135 388t329 158q190 0 254 -163zM1210 469l62 248
q-38 198 -215 198q-154 0 -254.5 -133.5t-100.5 -337.5q0 -111 55 -173t152 -62q107 0 189.5 71.5t111.5 188.5z" />
    <glyph glyph-name="A" unicode="A" horiz-adv-x="1223" 
d="M100 0h-151l565 1456h172l563 -1456h-153l-174 457h-648zM872 588l-276 731l-272 -731h548z" />
    <glyph glyph-name="B" unicode="B" horiz-adv-x="1042" 
d="M272 688v-549h201q346 0 346 273q0 276 -346 276h-201zM272 1317v-490h86q210 0 296 59q85 56 85 191q0 125 -82 182.5t-262 57.5h-123zM135 1456h271q247 0 363 -93.5t116 -291.5q0 -197 -156 -287q236 -98 236 -354q0 -222 -122.5 -326t-385.5 -104h-322v1456z" />
    <glyph glyph-name="C" unicode="C" horiz-adv-x="1540" 
d="M1296 1079q-190 264 -495 264q-242 0 -415 -179.5t-173 -428.5q0 -263 171 -444.5t417 -181.5q304 0 485 251h170q-100 -186 -268 -287.5t-377 -101.5q-321 0 -535.5 219t-214.5 547q0 311 228 537q213 211 514 211q217 0 390.5 -106t274.5 -300h-172z" />
    <glyph glyph-name="D" unicode="D" horiz-adv-x="1366" 
d="M276 1317v-1180h297q278 0 428 156t150 442q0 296 -197 467q-73 64 -159 88q-92 27 -256 27h-263zM135 1456h414q323 0 493 -143q263 -221 263 -582q0 -402 -291 -610q-95 -68 -199 -93q-114 -28 -330 -28h-350v1456z" />
    <glyph glyph-name="E" unicode="E" horiz-adv-x="1028" 
d="M279 803h612v-144h-612v-518h612v-141h-756v1456h756v-143h-612v-510z" />
    <glyph glyph-name="F" unicode="F" horiz-adv-x="991" 
d="M135 0v1456h719v-143h-578v-510h578v-144h-578v-659h-141z" />
    <glyph glyph-name="G" unicode="G" horiz-adv-x="1612" 
d="M643 698h905q-18 -318 -229 -522.5t-518 -204.5q-315 0 -527.5 220t-212.5 546q0 312 228 537q214 211 530 211q212 0 380.5 -102.5t270.5 -292.5h-176q-201 256 -483 256q-250 0 -424 -179t-174 -432q0 -267 172.5 -446.5t427.5 -179.5q201 0 359 128.5t206 331.5h-735
v129z" />
    <glyph glyph-name="H" unicode="H" horiz-adv-x="1251" 
d="M279 0h-144v1456h144v-653h692v653h143v-1456h-143v664h-692v-664z" />
    <glyph glyph-name="I" unicode="I" horiz-adv-x="412" 
d="M276 0h-143v1456h143v-1456z" />
    <glyph glyph-name="J" unicode="J" horiz-adv-x="915" 
d="M641 1456h143v-981q0 -225 -59 -325q-107 -181 -336 -181q-163 0 -262.5 105.5t-99.5 279.5h143q6 -108 69.5 -174.5t157.5 -66.5q137 0 189 85q55 90 55 337v921z" />
    <glyph glyph-name="K" unicode="K" horiz-adv-x="1100" 
d="M274 449v-449h-141v1456h141v-809l674 809h170l-588 -704l578 -752h-176l-494 645z" />
    <glyph glyph-name="L" unicode="L" horiz-adv-x="844" 
d="M791 0h-656v1456h144v-1315h512v-141z" />
    <glyph glyph-name="M" unicode="M" horiz-adv-x="1692" 
d="M143 0v1456h211l504 -1266l502 1266h211v-1456h-137v1286l-512 -1286h-129l-512 1286v-1286h-138z" />
    <glyph glyph-name="N" unicode="N" horiz-adv-x="1366" 
d="M1102 174l-17 1282h142v-1456h-172l-799 1284l16 -1284h-141v1456h172z" />
    <glyph glyph-name="O" unicode="O" horiz-adv-x="1612" 
d="M211 735q0 -266 173 -446t427 -180q248 0 419 182t171 448q0 249 -176.5 428t-423.5 179q-167 0 -311 -95.5t-219 -255.5q-60 -127 -60 -260zM61 737q0 313 228 537q215 211 514 211q305 0 522 -213q223 -219 223 -535q0 -309 -192 -520q-223 -246 -555 -246
q-314 0 -527 220.5t-213 545.5z" />
    <glyph glyph-name="P" unicode="P" horiz-adv-x="1034" 
d="M262 1313v-555h211q344 0 344 274q0 146 -85 213.5t-271 67.5h-199zM119 1456h309q247 0 346 -59q199 -119 199 -359q0 -235 -176 -352q-111 -74 -344 -74h-191v-612h-143v1456z" />
    <glyph glyph-name="Q" unicode="Q" horiz-adv-x="1612" 
d="M1313 174q86 -57 233 -57h19v-127q-2 0 -13 -1q-51 -3 -59 -3q-149 0 -293 102q-180 -117 -397 -117q-313 0 -527.5 221t-214.5 545q0 313 228 537q215 211 514 211q322 0 533.5 -218.5t211.5 -553.5q0 -318 -235 -539zM1202 264q199 199 199 475q0 249 -176.5 428
t-423.5 179q-239 0 -414.5 -180.5t-175.5 -422.5q0 -96 25 -188q152 72 311 72q174 0 316 -78q147 -80 339 -285zM1085 178q-179 187 -298 252q-109 59 -255 59q-111 0 -247 -63q82 -150 222.5 -235t303.5 -85q128 0 274 72z" />
    <glyph glyph-name="R" unicode="R" horiz-adv-x="1139" 
d="M256 1313v-1313h-141v1456h391q230 0 350 -84q87 -61 137.5 -163t50.5 -216q0 -169 -100.5 -291t-251.5 -133l352 -569h-170l-432 702h138q138 0 224.5 81t86.5 208q0 155 -105 250q-46 41 -104 55q-67 17 -215 17h-211z" />
    <glyph glyph-name="S" unicode="S" horiz-adv-x="952" 
d="M57 416h138q4 -135 76.5 -215t190.5 -80q127 0 201.5 79.5t74.5 215.5q0 198 -306 299l-36 12q-160 55 -230.5 139.5t-70.5 220.5q0 174 108.5 285t280.5 111q164 0 260 -101t107 -284h-135q-23 248 -232 248q-108 0 -176.5 -70.5t-68.5 -179.5q0 -110 86 -174
q45 -34 176 -76q79 -25 114 -39q142 -55 204.5 -140.5t62.5 -224.5q0 -212 -115.5 -341.5t-306.5 -129.5q-178 0 -289 122.5t-114 322.5z" />
    <glyph glyph-name="T" unicode="T" horiz-adv-x="750" 
d="M446 0h-143v1313h-291v143h725v-143h-291v-1313z" />
    <glyph glyph-name="U" unicode="U" horiz-adv-x="1157" 
d="M113 1456h143v-921q0 -107 9 -160q24 -150 143 -224q75 -47 170 -47q323 0 323 461v891h141v-926q0 -561 -454 -561q-245 0 -360 136t-115 425v926z" />
    <glyph glyph-name="V" unicode="V" horiz-adv-x="1139" 
d="M-41 1456h143l461 -1241l463 1241h143l-548 -1456h-113z" />
    <glyph glyph-name="W" unicode="W" horiz-adv-x="1665" 
d="M899 1456l293 -1194l364 1194h140l-451 -1456h-119l-292 1188l-293 -1188h-119l-453 1456h142l362 -1194l295 1194h131z" />
    <glyph glyph-name="X" unicode="X" horiz-adv-x="1165" 
d="M170 0h-176l506 733l-494 723h178l400 -604l399 604h176l-493 -723l505 -733h-180l-407 618z" />
    <glyph glyph-name="Y" unicode="Y" horiz-adv-x="981" 
d="M557 535v-535h-141v537l-465 919h164l372 -756l377 756h160z" />
    <glyph glyph-name="Z" unicode="Z" horiz-adv-x="938" 
d="M719 1313h-639v143h805v-137l-682 -1178h696v-141h-860v137z" />
    <glyph glyph-name="bracketleft" unicode="[" horiz-adv-x="541" 
d="M465 -293v-117h-332v1866h332v-119h-191v-1630h191z" />
    <glyph glyph-name="backslash" unicode="\" horiz-adv-x="569" 
d="M498 -190l-498 1646h119l499 -1646h-120z" />
    <glyph glyph-name="bracketright" unicode="]" horiz-adv-x="541" 
d="M76 -293h190v1630h-190v119h332v-1866h-332v117z" />
    <glyph glyph-name="asciicircum" unicode="^" horiz-adv-x="2048" 
d="M1094 1458l530 -557h-143l-457 455l-459 -455h-143l532 557h140z" />
    <glyph glyph-name="underscore" unicode="_" 
d="M1024 -383v-100h-1024v100h1024z" />
    <glyph glyph-name="grave" unicode="`" 
d="M545 1247l-269 350h152l209 -350h-92z" />
    <glyph glyph-name="a" unicode="a" horiz-adv-x="1290" 
d="M1042 557q0 174 -124.5 305t-288.5 131q-178 0 -302 -131t-124 -323q0 -183 123.5 -310t298.5 -127q169 0 293 134t124 321zM1042 174q-66 -95 -178.5 -149t-242.5 -54q-241 0 -402.5 165t-161.5 409q0 247 164.5 413t411.5 166q265 0 409 -200v176h138v-1100h-138v174z
" />
    <glyph glyph-name="b" unicode="b" horiz-adv-x="1290" 
d="M248 1456v-541q174 209 432 209q232 0 392.5 -167t160.5 -406q0 -248 -164.5 -414t-411.5 -166q-242 0 -409 195v-166h-139v1456h139zM248 539q0 -175 124 -306t287 -131q178 0 302 131.5t124 323.5q0 182 -123.5 309t-297.5 127q-173 0 -294.5 -132t-121.5 -322z" />
    <glyph glyph-name="c" unicode="c" horiz-adv-x="1241" 
d="M993 762q-127 235 -381 235q-171 0 -289 -129.5t-118 -318.5q0 -190 119 -317.5t294 -127.5q268 0 375 240h156q-64 -179 -201 -277t-323 -98q-238 0 -403 169t-165 409q0 244 166.5 413.5t405.5 169.5q179 0 315.5 -96.5t204.5 -271.5h-156z" />
    <glyph glyph-name="d" unicode="d" horiz-adv-x="1290" 
d="M1042 539q0 187 -124 320.5t-293 133.5q-175 0 -298.5 -127t-123.5 -309q0 -192 124 -323.5t302 -131.5q164 0 288.5 131.5t124.5 305.5zM1038 926v530h142v-1456h-142v166q-157 -195 -417 -195q-238 0 -401 168t-163 412q0 243 161.5 408t402.5 165q266 0 417 -198z" />
    <glyph glyph-name="e" unicode="e" horiz-adv-x="1241" 
d="M1192 506h-993q13 -180 130 -291t292 -111q261 0 376 244h160q-157 -379 -532 -379q-239 0 -405.5 170.5t-166.5 411.5q0 252 163 415.5t415 163.5q248 0 404.5 -170.5t156.5 -443.5v-10zM1036 625q-80 372 -426 372q-161 0 -271.5 -101t-135.5 -271h833z" />
    <glyph glyph-name="f" unicode="f" horiz-adv-x="563" 
d="M309 0h-137v977h-147v123h141v30q0 343 360 343h13v-127q-127 -2 -179.5 -50.5t-52.5 -165.5v-30h232v-123h-230v-977z" />
    <glyph glyph-name="g" unicode="g" horiz-adv-x="1280" 
d="M301 -90q68 -203 320 -203q188 0 301.5 125t113.5 334v29q-161 -220 -407 -220q-248 0 -412 165.5t-164 412.5q0 243 162 408t401 165q268 0 420 -206v180h138v-918q0 -288 -144.5 -450t-398.5 -162q-187 0 -321 92.5t-173 247.5h164zM203 559q0 -192 122 -322.5
t296 -130.5q164 0 288.5 131t124.5 306q0 187 -122.5 320.5t-290.5 133.5q-173 0 -295.5 -127t-122.5 -311z" />
    <glyph glyph-name="h" unicode="h" horiz-adv-x="1143" 
d="M111 1456h139v-485q123 151 338 151q233 0 338.5 -133t105.5 -430v-559h-139v561q0 237 -71 331.5t-242 94.5q-127 0 -212.5 -66t-106.5 -185q-11 -58 -11 -201v-535h-139v1456z" />
    <glyph glyph-name="i" unicode="i" horiz-adv-x="371" 
d="M256 1229h-141v227h141v-227zM115 0v1100h141v-1100h-141z" />
    <glyph glyph-name="j" unicode="j" horiz-adv-x="371" 
d="M256 1229h-141v227h141v-227zM256 1100v-1104q0 -198 -55 -274t-191 -76h-30v131q84 0 107 30q28 35 28 168v1125h141z" />
    <glyph glyph-name="k" unicode="k" horiz-adv-x="848" 
d="M256 0h-141v1456h141v-866l397 510h162l-399 -510l485 -590h-178l-467 573v-573z" />
    <glyph glyph-name="l" unicode="l" horiz-adv-x="371" 
d="M115 0v1456h141v-1456h-141z" />
    <glyph glyph-name="m" unicode="m" horiz-adv-x="1907" 
d="M977 928q137 194 389 194q224 0 326 -134.5t102 -432.5v-555h-135v584q0 217 -71.5 310t-235.5 93q-125 0 -207 -65q-85 -66 -108 -186q-11 -58 -11 -201v-535h-133v616q0 371 -313 371q-127 0 -212.5 -66t-106.5 -185q-11 -58 -11 -201v-535h-139v1100h139v-125
q127 147 342 147q124 0 227.5 -52.5t157.5 -141.5z" />
    <glyph glyph-name="n" unicode="n" horiz-adv-x="1143" 
d="M113 1100h137v-125q127 147 346 147q252 0 365 -174q71 -109 71 -373v-575h-139v616q0 195 -74.5 283t-238.5 88q-127 0 -212.5 -66t-106.5 -185q-11 -58 -11 -201v-535h-137v1100z" />
    <glyph glyph-name="o" unicode="o" horiz-adv-x="1241" 
d="M201 551q0 -190 121 -318.5t301 -128.5q177 0 297 128.5t120 320.5q0 195 -121.5 320.5t-308.5 125.5q-169 0 -289 -129.5t-120 -318.5zM53 549q0 241 165.5 413.5t393.5 172.5q238 0 407 -168.5t169 -403.5q0 -246 -165 -420t-400 -174q-238 0 -404 170t-166 410z" />
    <glyph glyph-name="p" unicode="p" horiz-adv-x="1290" 
d="M109 1100h139v-180q60 93 171.5 148.5t237.5 55.5q248 0 412 -165t164 -414q0 -243 -162 -408.5t-403 -165.5q-274 0 -420 203v-530h-139v1456zM248 557q0 -187 123.5 -321t292.5 -134q174 0 297.5 127t123.5 310q0 192 -124 323t-302 131q-163 0 -287 -131t-124 -305z
" />
    <glyph glyph-name="q" unicode="q" horiz-adv-x="1290" 
d="M1038 1100h142v-1456h-142v522q-147 -195 -417 -195q-241 0 -402.5 165t-161.5 409q0 247 164.5 413t411.5 166q259 0 405 -200v176zM1042 557q0 174 -124.5 305t-288.5 131q-178 0 -302 -131t-124 -323q0 -183 123.5 -310t298.5 -127q169 0 293 134t124 321z" />
    <glyph glyph-name="r" unicode="r" horiz-adv-x="512" 
d="M254 0h-143v1100h133v-127q99 139 257 143l1 -153q-134 -12 -191 -80t-57 -219v-664z" />
    <glyph glyph-name="s" unicode="s" horiz-adv-x="797" 
d="M43 346h145v-4q0 -103 59 -170.5t146 -67.5q83 0 138 52t55 131q0 80 -44 128t-157 89q-177 64 -239 133q-56 64 -56 182q0 129 93.5 219t226.5 90q141 0 224 -80t89 -223h-151q-11 164 -171 164q-69 0 -115 -46.5t-46 -115.5q0 -92 82 -143q32 -20 117 -48
q101 -33 102 -34q200 -85 200 -303q0 -142 -99 -235t-251 -93q-155 0 -249 101.5t-99 273.5z" />
    <glyph glyph-name="t" unicode="t" horiz-adv-x="559" 
d="M209 0v958h-209v142h209v356h141v-356h209v-142h-209v-958h-141z" />
    <glyph glyph-name="u" unicode="u" horiz-adv-x="1143" 
d="M109 1100h139v-584q0 -224 72.5 -318t240.5 -94q194 0 283 150q47 79 47 305v541h141v-1100h-141v119q-121 -148 -334 -148q-239 0 -343.5 129t-104.5 426v574z" />
    <glyph glyph-name="v" unicode="v" horiz-adv-x="977" 
d="M543 0h-129l-430 1100h149l352 -887l355 887h153z" />
    <glyph glyph-name="w" unicode="w" horiz-adv-x="1421" 
d="M1016 276l266 824h150l-371 -1100h-92l-258 838l-254 -838h-92l-371 1100h147l269 -824l252 824h102z" />
    <glyph glyph-name="x" unicode="x" horiz-adv-x="848" 
d="M172 1100l256 -416l274 416h162l-356 -527l354 -573h-160l-282 459l-295 -459h-156l373 571l-328 529h158z" />
    <glyph glyph-name="y" unicode="y" horiz-adv-x="944" 
d="M-33 1100h162l340 -893l356 893h164l-594 -1456h-151l147 358z" />
    <glyph glyph-name="z" unicode="z" horiz-adv-x="825" 
d="M780 0h-760v133l574 834h-510v133h666v-152l-562 -807h592v-141z" />
    <glyph glyph-name="braceleft" unicode="{" 
d="M854 1370h-37q-132 0 -177.5 -50.5t-45.5 -203.5v-242q0 -166 -43 -239t-154 -105q111 -31 154 -104t43 -240v-241q0 -153 44 -203.5t171 -50.5q5 0 22.5 1t22.5 1v-107h-47q-199 0 -266 73q-70 74 -70 296v244q0 154 -57 217t-195 63q-4 0 -21.5 -1t-23.5 -1v109
q6 0 23.5 -1t21.5 -1q138 0 195 63t57 217v242q0 221 69 296t267 75h47v-107z" />
    <glyph glyph-name="bar" unicode="|" 
d="M567 1565v-2048h-108v2048h108z" />
    <glyph glyph-name="braceright" unicode="}" 
d="M555 1106v-242q0 -154 57 -217t195 -63q5 0 22.5 1t22.5 1v-109q-6 0 -23.5 1t-21.5 1q-138 0 -195 -63t-57 -217v-244q0 -221 -68.5 -295t-267.5 -74h-47v107h39q131 0 176 50t45 202v241q0 169 42 241t155 103q-113 32 -155 104t-42 240v242q0 155 -44 205.5t-171 50.5
q-5 0 -22.5 -1t-22.5 -1v107h47q198 0 267 -75t69 -296z" />
    <glyph glyph-name="asciitilde" unicode="~" horiz-adv-x="1706" 
d="M1530 637q-203 -143 -387 -143q-99 0 -260 57q-12 4 -29 10q-4 2 -16 6q-176 64 -273 64q-158 0 -387 -160v113q211 145 387 145q104 0 272 -61q8 -3 28 -10l21 -8q167 -60 257 -60q162 0 387 160v-113z" />
    <glyph glyph-name="dagger" unicode="&#x2020;" 
d="M438 -231v1142h-364v127h364v418h146v-418h366v-127h-366v-1142h-146z" />
    <glyph glyph-name="cent" unicode="&#xa2;" horiz-adv-x="1157" 
d="M973 909q-85 271 -365 271q-165 0 -279 -132t-114 -325t115.5 -323t287.5 -130q129 0 224 74.5t131 204.5h147q-118 -367 -450 -402v-229h-133v232q-201 28 -334 191.5t-133 381.5q0 222 130 382.5t337 192.5v211h133v-206q350 -41 450 -394h-147z" />
    <glyph glyph-name="sterling" unicode="&#xa3;" horiz-adv-x="1157" 
d="M860 811v-141h-385q80 -143 80 -291q0 -139 -71 -252q60 -6 114 -6q369 0 369 282q0 38 -17 127h142q14 -77 14 -118q0 -190 -121 -308q-107 -104 -350 -104h-514v127h223q80 99 80 238q0 145 -105 307h-251v139h145q-41 129 -41 215q0 197 132 327t333 130
q173 0 287 -99.5t149 -279.5h-131q-26 119 -106.5 185.5t-196.5 66.5q-145 0 -236.5 -91.5t-91.5 -234.5q0 -97 56 -219h493z" />
    <glyph glyph-name="section" unicode="&#xa7;" 
d="M391 526l248 -157q127 85 127 190q0 116 -156 213l-221 137q-141 -56 -141 -180q0 -112 143 -203zM170 127h137v-12q0 -211 195 -211q182 0 182 166q0 63 -34.5 109t-127.5 104l-215 133q-198 122 -198 278q0 193 198 297q-104 79 -104 207q0 125 87.5 206t225.5 81
q146 0 229.5 -83.5t83.5 -230.5v-24h-128q-4 219 -197 219q-73 0 -117.5 -45.5t-44.5 -118.5q0 -112 141 -196l203 -121q122 -73 173.5 -145t51.5 -169q0 -179 -194 -280q106 -94 106 -228q0 -123 -92 -202.5t-233 -79.5q-151 0 -240.5 85.5t-89.5 229.5q0 3 1 15.5t1 15.5z
" />
    <glyph glyph-name="bullet" unicode="&#x2022;" horiz-adv-x="1208" 
d="M307 762q0 123 87 209t210 86q122 0 208.5 -86.5t86.5 -208.5t-87.5 -209.5t-209.5 -87.5q-123 0 -209 87t-86 210z" />
    <glyph glyph-name="paragraph" unicode="&#xb6;" 
d="M940 1409h-127v-1409h-82v1409h-186v-1409h-84v782q-174 8 -275.5 102.5t-101.5 245.5q0 157 107.5 253t285.5 96h463v-70z" />
    <glyph glyph-name="germandbls" unicode="&#xdf;" horiz-adv-x="1200" 
d="M256 358h139q80 -256 293 -256q122 0 211.5 85.5t89.5 201.5q0 297 -395 297h-90v115h6q134 0 211.5 72t77.5 196q0 117 -77.5 191.5t-197.5 74.5q-124 0 -196 -75.5t-72 -206.5v-695zM115 965q0 505 413 505q186 0 303 -112.5t117 -288.5q0 -215 -149 -260
q340 -79 340 -395q0 -189 -130 -316t-325 -127q-309 0 -428 318v-289h-141v965z" />
    <glyph glyph-name="acute" unicode="&#xb4;" 
d="M479 1247h-92l209 350h152z" />
    <glyph glyph-name="dieresis" unicode="&#xa8;" 
d="M625 1313v164h143v-164h-143zM256 1313v164h141v-164h-141z" />
    <glyph glyph-name="AE" unicode="&#xc6;" horiz-adv-x="1810" 
d="M465 627h473l6 686h-16zM367 483l-330 -483h-172l1001 1456h824v-143h-613v-510h613v-144h-613v-518h613v-141h-756v483h-567z" />
    <glyph glyph-name="Oslash" unicode="&#xd8;" horiz-adv-x="1612" 
d="M377 303l770 928q-155 115 -330 115q-253 0 -427.5 -179t-174.5 -432q0 -264 162 -432zM1237 1147l-768 -924q164 -112 334 -112q253 0 425.5 181t172.5 443q0 234 -164 412zM283 188q-220 238 -220 551q0 311 228 535q215 211 522 211q239 0 428 -142l172 207l96 -75
l-178 -213q217 -209 217 -525q0 -327 -214 -545.5t-531 -218.5q-229 0 -426 140l-207 -250l-94 78z" />
    <glyph glyph-name="yen" unicode="&#xa5;" horiz-adv-x="1157" 
d="M852 946h184v-110h-243l-88 -168h331v-111h-389v-557h-141v557h-391v111h334l-87 168h-247v110h188l-258 500h162l375 -748l368 748h162z" />
    <glyph glyph-name="ordfeminine" unicode="&#xaa;" horiz-adv-x="969" 
d="M782 1075q0 123 -94 215t-217 92q-133 0 -226 -92.5t-93 -226.5q0 -127 93 -216t224 -89q127 0 220 93.5t93 223.5zM782 809q-105 -143 -317 -143q-180 0 -301 115.5t-121 285.5q0 173 123 289.5t309 116.5q198 0 307 -140v123h103v-770h-103v123z" />
    <glyph glyph-name="ordmasculine" unicode="&#xba;" horiz-adv-x="932" 
d="M152 1071q0 -133 90 -222t225 -89q133 0 223 89.5t90 223.5q0 136 -91 224.5t-230 88.5q-128 0 -217.5 -91t-89.5 -224zM41 1071q0 168 123.5 289t294.5 121q179 0 305.5 -117.5t126.5 -282.5q0 -173 -123.5 -294t-300.5 -121q-179 0 -302.5 118.5t-123.5 286.5z" />
    <glyph glyph-name="ae" unicode="&#xe6;" horiz-adv-x="2228" 
d="M1180 0h-142v154q-171 -185 -417 -185q-241 0 -402.5 166t-161.5 410q0 247 164.5 413t411.5 166q223 0 405 -182v158h142v-162q178 186 436 186q246 0 402.5 -170t156.5 -438v-14h-987q13 -177 131 -288.5t289 -111.5q260 0 374 242h158q-155 -375 -528 -375
q-266 0 -432 185v-154zM2023 625q-36 177 -144.5 274.5t-268.5 97.5q-164 0 -276 -99.5t-142 -272.5h831zM1042 557q0 175 -125 307.5t-288 132.5q-177 0 -301.5 -133t-124.5 -325q0 -183 123.5 -310t298.5 -127q169 0 293 134t124 321z" />
    <glyph glyph-name="oslash" unicode="&#xf8;" horiz-adv-x="1241" 
d="M115 -137l-84 80l176 211q-154 162 -154 395q0 244 165.5 414t402.5 170q179 0 319 -101l168 201l92 -72l-172 -207q160 -162 160 -399q0 -243 -167.5 -414.5t-410.5 -171.5q-167 0 -317 105zM381 180q103 -76 227 -76q189 0 310.5 126.5t121.5 324.5q0 160 -98 295z
M852 926q-86 73 -229 73q-181 0 -301.5 -127.5t-120.5 -320.5q0 -165 94 -291z" />
    <glyph glyph-name="questiondown" unicode="&#xbf;" horiz-adv-x="948" 
d="M387 1058l143 1q0 -188 -153 -354q-23 -25 -54 -54q-126 -118 -126 -252q0 -130 70.5 -205t193.5 -75q268 0 280 325h148q-3 -213 -123 -343t-313 -130q-182 0 -295 119t-113 309q0 188 167 338q9 8 24 21q149 138 151 300zM530 1456v-266h-143v266h143z" />
    <glyph glyph-name="exclamdown" unicode="&#xa1;" horiz-adv-x="588" 
d="M223 1456h142v-266h-142v266zM223 1075h142v-1075h-142v1075z" />
    <glyph glyph-name="florin" unicode="&#x192;" horiz-adv-x="1157" 
d="M582 -47q-18 -208 -107 -290.5t-289 -82.5h-30l10 133h41q125 0 173.5 42.5t59.5 162.5l74 834h-256l10 133h256l21 225q21 228 101 298.5t278 70.5h49l-10 -129q-10 0 -28.5 1t-19.5 1q-127 0 -169 -39q-46 -43 -60 -191l-22 -237h258l-13 -133h-256z" />
    <glyph glyph-name="guillemotleft" unicode="&#xab;" horiz-adv-x="934" 
d="M664 229l-246 320l246 321h137l-246 -321l246 -320h-137zM360 229l-245 320l245 321h138l-248 -321l248 -320h-138z" />
    <glyph glyph-name="guillemotright" unicode="&#xbb;" horiz-adv-x="934" 
d="M573 229h-135l246 320l-246 321h135l248 -321zM270 229h-137l248 320l-248 321h137l246 -321z" />
    <glyph glyph-name="ellipsis" unicode="&#x2026;" horiz-adv-x="2048" 
d="M413 0h-143v266h143v-266zM1095 0h-143v266h143v-266zM1779 0h-143v266h143v-266z" />
    <glyph glyph-name="OE" unicode="&#x152;" horiz-adv-x="2232" 
d="M1393 260q-242 -289 -592 -289q-314 0 -527 220.5t-213 545.5q0 313 228 537q215 211 514 211q374 0 590 -291v262h755v-143h-612v-510h612v-144h-612v-518h612v-141h-755v260zM211 735q0 -266 173 -446t427 -180q248 0 419 182t171 448q0 249 -176.5 428t-423.5 179
q-167 0 -311 -95.5t-219 -255.5q-60 -127 -60 -260z" />
    <glyph glyph-name="oe" unicode="&#x153;" horiz-adv-x="2228" 
d="M2175 502h-987q13 -176 131 -287t289 -111q260 0 374 240h158q-151 -375 -538 -375q-322 0 -488 299q-157 -299 -491 -299q-239 0 -404.5 169.5t-165.5 410.5q0 244 167 414t407 170q155 0 283 -78.5t204 -220.5q82 141 213.5 220t286.5 79q248 0 404.5 -174.5
t156.5 -452.5v-4zM2023 625q-36 178 -145 276t-268 98q-165 0 -281 -103.5t-137 -270.5h831zM201 551q0 -190 121 -318.5t301 -128.5q177 0 297 128.5t120 320.5q0 195 -121.5 320.5t-308.5 125.5q-169 0 -289 -129.5t-120 -318.5z" />
    <glyph glyph-name="endash" unicode="&#x2013;" 
d="M1024 604v-112h-1024v112h1024z" />
    <glyph glyph-name="emdash" unicode="&#x2014;" horiz-adv-x="2048" 
d="M0 492v112h2048v-112h-2048z" />
    <glyph glyph-name="quotedblleft" unicode="&#x201c;" horiz-adv-x="692" 
d="M526 1028l-155 428h143l154 -428h-142zM231 1028l-153 428h141l156 -428h-144z" />
    <glyph glyph-name="quotedblright" unicode="&#x201d;" horiz-adv-x="692" 
d="M461 1028h-144l156 428h141zM166 1028h-141l153 428h144z" />
    <glyph glyph-name="quoteleft" unicode="&#x2018;" horiz-adv-x="397" 
d="M375 1028h-144l-153 428h141z" />
    <glyph glyph-name="quoteright" unicode="&#x2019;" horiz-adv-x="397" 
d="M166 1028h-141l153 428h144z" />
    <glyph glyph-name="fraction" unicode="&#x2215;" horiz-adv-x="342" 
d="M-221 -29h-121l905 1514h119z" />
    <glyph glyph-name="currency" unicode="&#xa4;" horiz-adv-x="1241" 
d="M944 887q0 133 -94 227t-227 94q-134 0 -230 -94.5t-96 -226.5q0 -134 96 -230t230 -96q133 0 227 96t94 230zM360 1210q117 90 261 90q148 0 262 -90l204 205l66 -65l-205 -205q88 -118 88 -260q0 -140 -88 -258l205 -207l-66 -66l-204 205q-118 -90 -262 -90
q-140 0 -261 90l-204 -205l-66 66l205 207q-90 122 -90 258q0 138 90 260l-205 205l66 65z" />
    <glyph glyph-name="guilsinglleft" unicode="&#x2039;" horiz-adv-x="631" 
d="M360 229l-245 320l245 321h138l-248 -321l248 -320h-138z" />
    <glyph glyph-name="guilsinglright" unicode="&#x203a;" horiz-adv-x="631" 
d="M270 229h-137l248 320l-248 321h137l246 -321z" />
    <glyph glyph-name="fi" unicode="&#xf001;" horiz-adv-x="952" 
d="M674 0v1100h141v-1100h-141zM309 0h-137v977h-147v123h141v30q0 343 358 343h13v-127q-126 -2 -178 -50.5t-52 -165.5v-30h230v-123h-228v-977zM815 1229h-141v227h141v-227z" />
    <glyph glyph-name="fl" unicode="&#xf002;" horiz-adv-x="952" 
d="M674 0v1456h141v-1456h-141zM309 0h-137v977h-147v123h141v30q0 343 360 343h11v-127q-126 -2 -178 -50.5t-52 -165.5v-30h230v-123h-228v-977z" />
    <glyph glyph-name="daggerdbl" unicode="&#x2021;" 
d="M434 -231v417h-364v127h364v598h-364v127h364v418h146v-418h374v-127h-374v-598h374v-127h-374v-417h-146z" />
    <glyph glyph-name="periodcentered" unicode="&#x2219;" horiz-adv-x="578" 
d="M197 729q0 39 27 66.5t65 27.5t66 -28t28 -66t-27.5 -65t-66.5 -27t-65.5 27t-26.5 65z" />
    <glyph glyph-name="quotesinglbase" unicode="&#x201a;" horiz-adv-x="397" 
d="M166 -162h-141l153 428h144z" />
    <glyph glyph-name="quotedblbase" unicode="&#x201e;" horiz-adv-x="692" 
d="M461 -162h-144l156 428h141zM166 -162h-141l153 428h144z" />
    <glyph glyph-name="perthousand" unicode="&#x2030;" horiz-adv-x="2693" 
d="M219 1122q0 -95 65.5 -161t159.5 -66q95 0 161.5 66.5t66.5 160.5q0 95 -66.5 161.5t-161.5 66.5q-94 0 -159.5 -66.5t-65.5 -161.5zM90 1126q0 150 105 254.5t256 104.5q149 0 253.5 -105t104.5 -254q0 -150 -104 -254t-254 -104q-151 0 -256 104t-105 254zM2015 328
q0 -94 66 -160t162 -66q94 0 160.5 65.5t66.5 160.5q0 93 -67 160t-160 67q-95 0 -161.5 -66.5t-66.5 -160.5zM1888 330q0 149 104.5 253.5t254.5 104.5q149 0 253.5 -104.5t104.5 -253.5q0 -151 -104 -255t-254 -104q-151 0 -255 104t-104 255zM1231 1485h115l-777 -1514
h-116zM1116 330q0 -96 66 -162t161 -66t161.5 66.5t66.5 161.5q0 94 -66 159.5t-162 65.5q-95 0 -161 -65.5t-66 -159.5zM987 330q0 149 104.5 253.5t254.5 104.5q149 0 253.5 -104.5t104.5 -253.5q0 -151 -104 -255t-254 -104q-151 0 -255 104t-104 255z" />
    <glyph glyph-name="dotlessi" unicode="&#x131;" horiz-adv-x="371" 
d="M115 0v1100h141v-1100h-141z" />
    <glyph glyph-name="circumflex" unicode="&#x2c6;" 
d="M236 1247l200 350h152l200 -350h-92l-184 264l-184 -264h-92z" />
    <glyph glyph-name="tilde" unicode="&#x2dc;" 
d="M801 1499q-53 -184 -191 -184q-34 0 -65 10l-97 31q-25 8 -53 8q-61 0 -92 -74h-80q43 185 195 185q24 0 53 -9l96 -30q35 -11 56 -11q64 0 96 74h82z" />
    <glyph glyph-name="macron" unicode="&#xaf;" 
d="M256 1346v116h512v-116h-512z" />
    <glyph glyph-name="breve" unicode="&#x2d8;" 
d="M238 1554h79q12 -145 195 -145q180 0 193 145h81q-17 -262 -274 -262t-274 262z" />
    <glyph glyph-name="dotaccent" unicode="&#x2d9;" 
d="M436 1319v176h152v-176h-152z" />
    <glyph glyph-name="ring" unicode="&#x2da;" 
d="M362 1468q0 -63 43.5 -106t106.5 -43q62 0 106 43.5t44 105.5q0 63 -44 107.5t-106 44.5q-63 0 -106.5 -44t-43.5 -108zM272 1470q0 101 69.5 170.5t170.5 69.5q100 0 171 -70t71 -170q0 -99 -71 -170t-171 -71t-170 70.5t-70 170.5z" />
    <glyph glyph-name="cedilla" unicode="&#xb8;" 
d="M512 -111h20q220 0 220 -172q0 -176 -228 -176q-111 0 -252 39v78q161 -35 238 -35q129 0 129 90q0 105 -143 105q-29 0 -47 -2v184h63v-111z" />
    <glyph glyph-name="hungarumlaut" unicode="&#x2dd;" 
d="M571 1247l168 350h133l-227 -350h-74zM336 1247l149 350h133l-208 -350h-74z" />
    <glyph glyph-name="ogonek" unicode="&#x2db;" 
d="M580 0q-146 -126 -146 -236q0 -86 109 -86h75v-104h-73q-209 0 -209 162q0 124 182 264h62z" />
    <glyph glyph-name="caron" unicode="&#x2c7;" 
d="M236 1597h92l184 -262l184 262h92l-200 -348h-152z" />
    <glyph glyph-name="Lslash" unicode="&#x141;" horiz-adv-x="858" 
d="M805 0h-655v575l-150 -106v143l150 105v739h143v-641l256 178v-145l-256 -176v-531h512v-141z" />
    <glyph glyph-name="lslash" unicode="&#x142;" horiz-adv-x="389" 
d="M133 0v645l-133 -92v139l133 94v670h141v-577l134 94v-142l-134 -92v-739h-141z" />
    <glyph glyph-name="Eth" unicode="&#xd0;" horiz-adv-x="1380" 
d="M600 1317h-309v-522h358v-127h-358v-531h336q245 0 391.5 163t146.5 435q0 268 -151.5 425t-413.5 157zM150 0v668h-154v127h154v661h438q328 0 529.5 -203t201.5 -530q0 -380 -295 -598q-95 -70 -194 -96q-109 -29 -302 -29h-378z" />
    <glyph glyph-name="eth" unicode="&#xf0;" horiz-adv-x="1241" 
d="M612 936q-168 0 -288.5 -122t-120.5 -296q0 -177 120 -295.5t300 -118.5q179 0 298 121t119 305q0 173 -122 289.5t-306 116.5zM983 915q-69 186 -227 308l-269 -99l-36 82l223 84q-68 42 -160 86l43 92q147 -65 246 -131l287 103l34 -80l-237 -88q301 -280 301 -680
q0 -278 -157.5 -449.5t-409.5 -171.5q-237 0 -402.5 158.5t-165.5 380.5t166 382.5t393 160.5q191 0 371 -138z" />
    <glyph glyph-name="Scaron" unicode="&#x160;" horiz-adv-x="952" 
d="M57 416h138q4 -135 76.5 -215t190.5 -80q127 0 201.5 79.5t74.5 215.5q0 198 -306 299l-36 12q-160 55 -230.5 139.5t-70.5 220.5q0 174 108.5 285t280.5 111q164 0 260 -101t107 -284h-135q-23 248 -232 248q-108 0 -176.5 -70.5t-68.5 -179.5q0 -110 86 -174
q45 -34 176 -76q79 -25 114 -39q142 -55 204.5 -140.5t62.5 -224.5q0 -212 -115.5 -341.5t-306.5 -129.5q-178 0 -289 122.5t-114 322.5zM201 1947h92l184 -262l184 262h92l-200 -348h-152z" />
    <glyph glyph-name="scaron" unicode="&#x161;" horiz-adv-x="797" 
d="M43 346h145v-4q0 -103 59 -170.5t146 -67.5q83 0 138 52t55 131q0 80 -44 128t-157 89q-177 64 -239 133q-56 64 -56 182q0 129 93.5 219t226.5 90q141 0 224 -80t89 -223h-151q-11 164 -171 164q-69 0 -115 -46.5t-46 -115.5q0 -92 82 -143q32 -20 117 -48
q101 -33 102 -34q200 -85 200 -303q0 -142 -99 -235t-251 -93q-155 0 -249 101.5t-99 273.5zM123 1597h92l184 -262l184 262h92l-200 -348h-152z" />
    <glyph glyph-name="Yacute" unicode="&#xdd;" horiz-adv-x="981" 
d="M557 535v-535h-141v537l-465 919h164l372 -756l377 756h160zM459 1597h-92l209 350h152z" />
    <glyph glyph-name="yacute" unicode="&#xfd;" horiz-adv-x="944" 
d="M-33 1100h162l340 -893l356 893h164l-594 -1456h-151l147 358zM440 1247h-92l209 350h152z" />
    <glyph glyph-name="Thorn" unicode="&#xde;" horiz-adv-x="1034" 
d="M262 1030v-553h211q342 0 342 279q0 149 -106 225q-69 49 -248 49h-199zM119 1456h143v-282h193q222 0 314.5 -55t148 -151t55.5 -206q0 -199 -139.5 -315.5t-380.5 -116.5h-191v-330h-143v1456z" />
    <glyph glyph-name="thorn" unicode="&#xfe;" horiz-adv-x="1290" 
d="M659 993q-166 0 -288.5 -131.5t-122.5 -310.5q0 -182 124.5 -315.5t291.5 -133.5q174 0 297.5 127t123.5 310q0 193 -123.5 323.5t-302.5 130.5zM252 174v-530h-143v1812h143l-4 -536q60 93 171.5 148.5t237.5 55.5q245 0 410.5 -163.5t165.5 -401.5q0 -254 -160 -421
t-405 -167q-277 0 -416 203z" />
    <glyph glyph-name="Zcaron" unicode="&#x17d;" horiz-adv-x="938" 
d="M719 1313h-639v143h805v-137l-682 -1178h696v-141h-860v137zM193 1947h92l184 -262l184 262h92l-200 -348h-152z" />
    <glyph glyph-name="zcaron" unicode="&#x17e;" horiz-adv-x="825" 
d="M780 0h-760v133l574 834h-510v133h666v-152l-562 -807h592v-141zM138 1597h92l184 -262l184 262h92l-200 -348h-152z" />
    <glyph glyph-name="onehalf" unicode="&#xbd;" horiz-adv-x="1800" 
d="M1724 0h-569v80l326 272q157 131 157 228q0 77 -56.5 128.5t-141.5 51.5q-90 0 -143.5 -53t-53.5 -142v-22h-88v12q0 124 81.5 201.5t209.5 77.5q116 0 198 -75.5t82 -185.5q0 -124 -143 -241l-309 -252h450v-80zM508 -29h-121l905 1514h119zM426 641h-96v745h-160v70
h256v-815z" />
    <glyph glyph-name="onequarter" unicode="&#xbc;" horiz-adv-x="1800" 
d="M1559 227l4 494l-342 -494h338zM1645 0h-89v158h-430v69l416 588h103v-588h100v-69h-100v-158zM508 -29h-121l905 1514h119zM426 641h-96v745h-160v70h256v-815z" />
    <glyph glyph-name="onesuperior" unicode="&#xb9;" horiz-adv-x="764" 
d="M446 582h-100v798h-168v76h268v-874z" />
    <glyph glyph-name="threequarters" unicode="&#xbe;" horiz-adv-x="1800" 
d="M1559 227l4 494l-342 -494h338zM1645 0h-89v158h-430v69l416 588h103v-588h100v-69h-100v-158zM508 -29h-121l905 1514h119zM160 889v-6q0 -81 56.5 -135t139.5 -54q90 0 148.5 53t58.5 136q0 190 -244 190h-43l1 68q12 -2 40 -2q183 0 183 133q0 57 -39.5 94t-98.5 37
q-145 0 -145 -137h-84q6 95 69 151t165 56q93 0 159 -59.5t66 -141.5q0 -93 -88 -152q149 -70 149 -229q0 -113 -84 -189.5t-209 -76.5q-134 0 -211.5 70t-80.5 194h92z" />
    <glyph glyph-name="threesuperior" unicode="&#xb3;" horiz-adv-x="764" 
d="M168 848v-8q0 -87 59 -144t146 -57q94 0 155.5 57t61.5 146q0 202 -254 202h-45v72q16 -2 41 -2q190 0 190 143q0 61 -40.5 100.5t-102.5 39.5q-148 0 -152 -148h-88q6 104 71.5 164t172.5 60q99 0 168.5 -64t69.5 -152q0 -100 -95 -161q160 -78 160 -246
q0 -121 -87.5 -203t-219.5 -82q-142 0 -223.5 75t-83.5 208h96z" />
    <glyph glyph-name="twosuperior" unicode="&#xb2;" horiz-adv-x="764" 
d="M684 582h-596v84l340 295q102 88 132 134q34 52 34 107q0 83 -59 138t-150 55q-93 0 -149 -56.5t-56 -150.5v-25h-92v13q0 132 85.5 215.5t219.5 83.5q122 0 207.5 -80.5t85.5 -198.5q0 -133 -149 -258l-324 -272h471v-84z" />
    <glyph glyph-name="brokenbar" unicode="&#xa6;" 
d="M567 408v-758h-108v758h108zM567 1432v-758h-108v758h108z" />
    <glyph glyph-name="minus" unicode="&#xad;" horiz-adv-x="1706" 
d="M1452 659v-98h-1198v98h1198z" />
    <glyph glyph-name="multiply" unicode="&#xd7;" horiz-adv-x="1706" 
d="M856 680l481 481l70 -69l-481 -482l481 -481l-70 -70l-481 482l-481 -482l-70 70l481 481l-481 482l70 69z" />
    <glyph glyph-name="Adieresis" unicode="&#xc4;" horiz-adv-x="1223" 
d="M100 0h-151l565 1456h172l563 -1456h-153l-174 457h-648zM872 588l-276 731l-272 -731h548zM711 1663v164h143v-164h-143zM342 1663v164h141v-164h-141z" />
    <glyph glyph-name="Aring" unicode="&#xc5;" horiz-adv-x="1223" 
d="M461 1743q0 -59 41 -100t100 -41q60 0 101.5 41t41.5 100t-42.5 102t-100.5 43t-99.5 -42.5t-41.5 -102.5zM371 1743q0 95 67 162t162 67t162 -67t67 -162t-67 -162.5t-162 -67.5q-96 0 -162.5 67t-66.5 163zM872 588l-276 731l-272 -731h548zM100 0h-151l565 1456h172
l563 -1456h-153l-174 457h-648z" />
    <glyph glyph-name="Ccedilla" unicode="&#xc7;" horiz-adv-x="1540" 
d="M1296 1079q-190 264 -495 264q-242 0 -415 -179.5t-173 -428.5q0 -263 171 -444.5t417 -181.5q304 0 485 251h170q-100 -186 -268 -287.5t-377 -101.5q-321 0 -535.5 219t-214.5 547q0 311 228 537q213 211 514 211q217 0 390.5 -106t274.5 -300h-172zM801 -111h20
q220 0 220 -172q0 -176 -228 -176q-111 0 -252 39v78q161 -35 238 -35q129 0 129 90q0 105 -143 105q-29 0 -47 -2v184h63v-111z" />
    <glyph glyph-name="Eacute" unicode="&#xc9;" horiz-adv-x="1028" 
d="M279 803h612v-144h-612v-518h612v-141h-756v1456h756v-143h-612v-510zM495 1597h-92l209 350h152z" />
    <glyph glyph-name="Ntilde" unicode="&#xd1;" horiz-adv-x="1366" 
d="M1102 174l-17 1282h142v-1456h-172l-799 1284l16 -1284h-141v1456h172zM973 1849q-53 -184 -191 -184q-34 0 -65 10l-97 31q-25 8 -53 8q-61 0 -92 -74h-80q43 185 195 185q24 0 53 -9l96 -30q35 -11 56 -11q64 0 96 74h82z" />
    <glyph glyph-name="Odieresis" unicode="&#xd6;" horiz-adv-x="1612" 
d="M211 735q0 -266 173 -446t427 -180q248 0 419 182t171 448q0 249 -176.5 428t-423.5 179q-167 0 -311 -95.5t-219 -255.5q-60 -127 -60 -260zM61 737q0 313 228 537q215 211 514 211q305 0 522 -213q223 -219 223 -535q0 -309 -192 -520q-223 -246 -555 -246
q-314 0 -527 220.5t-213 545.5zM920 1663v164h143v-164h-143zM551 1663v164h141v-164h-141z" />
    <glyph glyph-name="Udieresis" unicode="&#xdc;" horiz-adv-x="1157" 
d="M113 1456h143v-921q0 -107 9 -160q24 -150 143 -224q75 -47 170 -47q323 0 323 461v891h141v-926q0 -561 -454 -561q-245 0 -360 136t-115 425v926zM693 1663v164h143v-164h-143zM324 1663v164h141v-164h-141z" />
    <glyph glyph-name="aacute" unicode="&#xe1;" horiz-adv-x="1290" 
d="M1042 557q0 174 -124.5 305t-288.5 131q-178 0 -302 -131t-124 -323q0 -183 123.5 -310t298.5 -127q169 0 293 134t124 321zM1042 174q-66 -95 -178.5 -149t-242.5 -54q-241 0 -402.5 165t-161.5 409q0 247 164.5 413t411.5 166q265 0 409 -200v176h138v-1100h-138v174z
M602 1247h-92l209 350h152z" />
    <glyph glyph-name="agrave" unicode="&#xe0;" horiz-adv-x="1290" 
d="M1042 557q0 174 -124.5 305t-288.5 131q-178 0 -302 -131t-124 -323q0 -183 123.5 -310t298.5 -127q169 0 293 134t124 321zM1042 174q-66 -95 -178.5 -149t-242.5 -54q-241 0 -402.5 165t-161.5 409q0 247 164.5 413t411.5 166q265 0 409 -200v176h138v-1100h-138v174z
M668 1247l-269 350h152l209 -350h-92z" />
    <glyph glyph-name="acircumflex" unicode="&#xe2;" horiz-adv-x="1290" 
d="M1042 557q0 174 -124.5 305t-288.5 131q-178 0 -302 -131t-124 -323q0 -183 123.5 -310t298.5 -127q169 0 293 134t124 321zM1042 174q-66 -95 -178.5 -149t-242.5 -54q-241 0 -402.5 165t-161.5 409q0 247 164.5 413t411.5 166q265 0 409 -200v176h138v-1100h-138v174z
M359 1247l200 350h152l200 -350h-92l-184 264l-184 -264h-92z" />
    <glyph glyph-name="adieresis" unicode="&#xe4;" horiz-adv-x="1290" 
d="M1042 557q0 174 -124.5 305t-288.5 131q-178 0 -302 -131t-124 -323q0 -183 123.5 -310t298.5 -127q169 0 293 134t124 321zM1042 174q-66 -95 -178.5 -149t-242.5 -54q-241 0 -402.5 165t-161.5 409q0 247 164.5 413t411.5 166q265 0 409 -200v176h138v-1100h-138v174z
M748 1313v164h143v-164h-143zM379 1313v164h141v-164h-141z" />
    <glyph glyph-name="atilde" unicode="&#xe3;" horiz-adv-x="1290" 
d="M1042 557q0 174 -124.5 305t-288.5 131q-178 0 -302 -131t-124 -323q0 -183 123.5 -310t298.5 -127q169 0 293 134t124 321zM1042 174q-66 -95 -178.5 -149t-242.5 -54q-241 0 -402.5 165t-161.5 409q0 247 164.5 413t411.5 166q265 0 409 -200v176h138v-1100h-138v174z
M924 1499q-53 -184 -191 -184q-34 0 -65 10l-97 31q-25 8 -53 8q-61 0 -92 -74h-80q43 185 195 185q24 0 53 -9l96 -30q35 -11 56 -11q64 0 96 74h82z" />
    <glyph glyph-name="aring" unicode="&#xe5;" horiz-adv-x="1290" 
d="M506 1413q0 -59 41.5 -101t99.5 -42q59 0 101.5 42t42.5 101q0 58 -42.5 100.5t-101.5 42.5q-58 0 -99.5 -41.5t-41.5 -101.5zM416 1411q0 95 67 162t162 67q96 0 164 -67t68 -162t-68 -162t-164 -67t-162.5 66.5t-66.5 162.5zM1042 174q-66 -95 -178.5 -149t-242.5 -54
q-241 0 -402.5 165t-161.5 409q0 247 164.5 413t411.5 166q265 0 409 -200v176h138v-1100h-138v174zM1042 557q0 174 -124.5 305t-288.5 131q-178 0 -302 -131t-124 -323q0 -183 123.5 -310t298.5 -127q169 0 293 134t124 321z" />
    <glyph glyph-name="ccedilla" unicode="&#xe7;" horiz-adv-x="1241" 
d="M993 762q-127 235 -381 235q-171 0 -289 -129.5t-118 -318.5q0 -190 119 -317.5t294 -127.5q268 0 375 240h156q-64 -179 -201 -277t-323 -98q-238 0 -403 169t-165 409q0 244 166.5 413.5t405.5 169.5q179 0 315.5 -96.5t204.5 -271.5h-156zM621 -111h20q220 0 220 -172
q0 -176 -228 -176q-111 0 -252 39v78q161 -35 238 -35q129 0 129 90q0 105 -143 105q-29 0 -47 -2v184h63v-111z" />
    <glyph glyph-name="eacute" unicode="&#xe9;" horiz-adv-x="1241" 
d="M1192 506h-993q13 -180 130 -291t292 -111q261 0 376 244h160q-157 -379 -532 -379q-239 0 -405.5 170.5t-166.5 411.5q0 252 163 415.5t415 163.5q248 0 404.5 -170.5t156.5 -443.5v-10zM1036 625q-80 372 -426 372q-161 0 -271.5 -101t-135.5 -271h833zM600 1247h-92
l209 350h152z" />
    <glyph glyph-name="egrave" unicode="&#xe8;" horiz-adv-x="1241" 
d="M1192 506h-993q13 -180 130 -291t292 -111q261 0 376 244h160q-157 -379 -532 -379q-239 0 -405.5 170.5t-166.5 411.5q0 252 163 415.5t415 163.5q248 0 404.5 -170.5t156.5 -443.5v-10zM1036 625q-80 372 -426 372q-161 0 -271.5 -101t-135.5 -271h833zM666 1247
l-269 350h152l209 -350h-92z" />
    <glyph glyph-name="ecircumflex" unicode="&#xea;" horiz-adv-x="1241" 
d="M1192 506h-993q13 -180 130 -291t292 -111q261 0 376 244h160q-157 -379 -532 -379q-239 0 -405.5 170.5t-166.5 411.5q0 252 163 415.5t415 163.5q248 0 404.5 -170.5t156.5 -443.5v-10zM1036 625q-80 372 -426 372q-161 0 -271.5 -101t-135.5 -271h833zM357 1247
l200 350h152l200 -350h-92l-184 264l-184 -264h-92z" />
    <glyph glyph-name="edieresis" unicode="&#xeb;" horiz-adv-x="1241" 
d="M1192 506h-993q13 -180 130 -291t292 -111q261 0 376 244h160q-157 -379 -532 -379q-239 0 -405.5 170.5t-166.5 411.5q0 252 163 415.5t415 163.5q248 0 404.5 -170.5t156.5 -443.5v-10zM1036 625q-80 372 -426 372q-161 0 -271.5 -101t-135.5 -271h833zM746 1313v164
h143v-164h-143zM377 1313v164h141v-164h-141z" />
    <glyph glyph-name="iacute" unicode="&#xed;" horiz-adv-x="371" 
d="M115 0v1100h141v-1100h-141zM153 1247h-92l209 350h152z" />
    <glyph glyph-name="igrave" unicode="&#xec;" horiz-adv-x="371" 
d="M115 0v1100h141v-1100h-141zM219 1247l-269 350h152l209 -350h-92z" />
    <glyph glyph-name="icircumflex" unicode="&#xee;" horiz-adv-x="371" 
d="M115 0v1100h141v-1100h-141zM-90 1247l200 350h152l200 -350h-92l-184 264l-184 -264h-92z" />
    <glyph glyph-name="idieresis" unicode="&#xef;" horiz-adv-x="371" 
d="M115 0v1100h141v-1100h-141zM299 1313v164h143v-164h-143zM-70 1313v164h141v-164h-141z" />
    <glyph glyph-name="ntilde" unicode="&#xf1;" horiz-adv-x="1143" 
d="M113 1100h137v-125q127 147 346 147q252 0 365 -174q71 -109 71 -373v-575h-139v616q0 195 -74.5 283t-238.5 88q-127 0 -212.5 -66t-106.5 -185q-11 -58 -11 -201v-535h-137v1100zM873 1499q-53 -184 -191 -184q-34 0 -65 10l-97 31q-25 8 -53 8q-61 0 -92 -74h-80
q43 185 195 185q24 0 53 -9l96 -30q35 -11 56 -11q64 0 96 74h82z" />
    <glyph glyph-name="oacute" unicode="&#xf3;" horiz-adv-x="1241" 
d="M201 551q0 -190 121 -318.5t301 -128.5q177 0 297 128.5t120 320.5q0 195 -121.5 320.5t-308.5 125.5q-169 0 -289 -129.5t-120 -318.5zM53 549q0 241 165.5 413.5t393.5 172.5q238 0 407 -168.5t169 -403.5q0 -246 -165 -420t-400 -174q-238 0 -404 170t-166 410z
M598 1247h-92l209 350h152z" />
    <glyph glyph-name="ograve" unicode="&#xf2;" horiz-adv-x="1241" 
d="M201 551q0 -190 121 -318.5t301 -128.5q177 0 297 128.5t120 320.5q0 195 -121.5 320.5t-308.5 125.5q-169 0 -289 -129.5t-120 -318.5zM53 549q0 241 165.5 413.5t393.5 172.5q238 0 407 -168.5t169 -403.5q0 -246 -165 -420t-400 -174q-238 0 -404 170t-166 410z
M664 1247l-269 350h152l209 -350h-92z" />
    <glyph glyph-name="ocircumflex" unicode="&#xf4;" horiz-adv-x="1241" 
d="M201 551q0 -190 121 -318.5t301 -128.5q177 0 297 128.5t120 320.5q0 195 -121.5 320.5t-308.5 125.5q-169 0 -289 -129.5t-120 -318.5zM53 549q0 241 165.5 413.5t393.5 172.5q238 0 407 -168.5t169 -403.5q0 -246 -165 -420t-400 -174q-238 0 -404 170t-166 410z
M355 1247l200 350h152l200 -350h-92l-184 264l-184 -264h-92z" />
    <glyph glyph-name="odieresis" unicode="&#xf6;" horiz-adv-x="1241" 
d="M201 551q0 -190 121 -318.5t301 -128.5q177 0 297 128.5t120 320.5q0 195 -121.5 320.5t-308.5 125.5q-169 0 -289 -129.5t-120 -318.5zM53 549q0 241 165.5 413.5t393.5 172.5q238 0 407 -168.5t169 -403.5q0 -246 -165 -420t-400 -174q-238 0 -404 170t-166 410z
M744 1313v164h143v-164h-143zM375 1313v164h141v-164h-141z" />
    <glyph glyph-name="otilde" unicode="&#xf5;" horiz-adv-x="1241" 
d="M201 551q0 -190 121 -318.5t301 -128.5q177 0 297 128.5t120 320.5q0 195 -121.5 320.5t-308.5 125.5q-169 0 -289 -129.5t-120 -318.5zM53 549q0 241 165.5 413.5t393.5 172.5q238 0 407 -168.5t169 -403.5q0 -246 -165 -420t-400 -174q-238 0 -404 170t-166 410z
M920 1499q-53 -184 -191 -184q-34 0 -65 10l-97 31q-25 8 -53 8q-61 0 -92 -74h-80q43 185 195 185q24 0 53 -9l96 -30q35 -11 56 -11q64 0 96 74h82z" />
    <glyph glyph-name="uacute" unicode="&#xfa;" horiz-adv-x="1143" 
d="M109 1100h139v-584q0 -224 72.5 -318t240.5 -94q194 0 283 150q47 79 47 305v541h141v-1100h-141v119q-121 -148 -334 -148q-239 0 -343.5 129t-104.5 426v574zM532 1247h-92l209 350h152z" />
    <glyph glyph-name="ugrave" unicode="&#xf9;" horiz-adv-x="1143" 
d="M109 1100h139v-584q0 -224 72.5 -318t240.5 -94q194 0 283 150q47 79 47 305v541h141v-1100h-141v119q-121 -148 -334 -148q-239 0 -343.5 129t-104.5 426v574zM598 1247l-269 350h152l209 -350h-92z" />
    <glyph glyph-name="ucircumflex" unicode="&#xfb;" horiz-adv-x="1143" 
d="M109 1100h139v-584q0 -224 72.5 -318t240.5 -94q194 0 283 150q47 79 47 305v541h141v-1100h-141v119q-121 -148 -334 -148q-239 0 -343.5 129t-104.5 426v574zM289 1247l200 350h152l200 -350h-92l-184 264l-184 -264h-92z" />
    <glyph glyph-name="udieresis" unicode="&#xfc;" horiz-adv-x="1143" 
d="M109 1100h139v-584q0 -224 72.5 -318t240.5 -94q194 0 283 150q47 79 47 305v541h141v-1100h-141v119q-121 -148 -334 -148q-239 0 -343.5 129t-104.5 426v574zM678 1313v164h143v-164h-143zM309 1313v164h141v-164h-141z" />
    <glyph glyph-name="degree" unicode="&#xb0;" horiz-adv-x="674" 
d="M545 1174q0 86 -60.5 147t-146.5 61t-147.5 -61t-61.5 -147q0 -87 61 -147t148 -60t147 60t60 147zM338 1452q115 0 195.5 -81.5t80.5 -196.5t-81.5 -197t-196.5 -82q-117 0 -197 81t-80 198q0 116 81.5 197t197.5 81z" />
    <glyph glyph-name="registered" unicode="&#xae;" horiz-adv-x="1706" 
d="M850 1071h-158v-303h158q133 0 187.5 33.5t54.5 113.5q0 156 -242 156zM874 1157q349 0 349 -233q0 -89 -54 -149t-145 -73l188 -389h-145l-178 371h-197v-371h-127v844h309zM1505 721q0 277 -186 463q-192 192 -467 192q-269 0 -455 -188q-196 -198 -196 -465t192 -459
t459 -192q269 0 467 194q186 182 186 455zM852 1456q309 0 521 -214t212 -519q0 -306 -211 -514q-222 -219 -522 -219t-515.5 216.5t-215.5 516.5t219 522q208 211 512 211z" />
    <glyph glyph-name="copyright" unicode="&#xa9;" horiz-adv-x="1706" 
d="M1073 915q-38 168 -217 168q-122 0 -190 -95t-68 -267q0 -166 69 -260t189 -94q89 0 151 50.5t78 137.5h115q-11 -125 -108.5 -205t-241.5 -80q-177 0 -279 122t-102 335q0 203 107.5 326t283.5 123q135 0 226.5 -72t103.5 -189h-117zM1505 723q0 273 -188 461
q-192 192 -465 192q-272 0 -457 -188q-194 -197 -194 -465q0 -267 192 -459t459 -192q269 0 467 194q186 182 186 457zM852 1456q307 0 522 -215q211 -211 211 -518q0 -306 -211 -514q-222 -219 -522 -219q-299 0 -515 216t-216 517q0 299 219 522q207 211 512 211z" />
    <glyph glyph-name="trademark" unicode="&#x2122;" horiz-adv-x="1706" 
d="M938 1454l166 -422l156 422h116v-530h-71v467l-177 -467h-49l-186 467v-467h-72v530h117zM694 1454v-57h-172v-473h-82v473h-176v57h430z" />
    <glyph glyph-name="notequal" unicode="&#x2260;" horiz-adv-x="1706" 
d="M1288 1110l-205 -264h369v-96h-432l-215 -277h647v-98h-709l-254 -324l-73 60l205 264h-367v98h428l215 277h-643v96h707l253 323z" />
    <glyph glyph-name="infinity" unicode="&#x221e;" horiz-adv-x="1706" 
d="M897 559q103 -199 281 -199q106 0 173.5 75t67.5 192q0 113 -62.5 187.5t-156.5 74.5q-87 0 -155.5 -74.5t-147.5 -255.5zM811 668q-103 196 -281 196q-106 0 -173.5 -74.5t-67.5 -189.5q0 -112 63 -187t156 -75q87 0 156.5 75.5t146.5 254.5zM838 721q72 144 149 206
t182 62q125 0 215.5 -108.5t90.5 -264.5q0 -169 -81.5 -273.5t-211.5 -104.5q-96 0 -168.5 61t-145.5 203q-135 -264 -321 -264q-133 0 -223.5 107t-90.5 267q0 169 81.5 273t211.5 104q186 0 312 -268z" />
    <glyph glyph-name="plusminus" unicode="&#xb1;" horiz-adv-x="1706" 
d="M1452 150v-99h-1198v99h1198zM903 1169v-348h549v-98h-549v-348h-98v348h-551v98h551v348h98z" />
    <glyph glyph-name="lessequal" unicode="&#x2264;" horiz-adv-x="1706" 
d="M1442 139v-98h-1178v98h1178zM1442 1075l-1010 -338l1010 -336v-106l-1178 401v84l1178 402v-107z" />
    <glyph glyph-name="greaterequal" unicode="&#x2265;" horiz-adv-x="1706" 
d="M1442 139v-98h-1178v98h1178zM1442 780v-84l-1178 -401v106l1010 336l-1010 338v107z" />
    <glyph glyph-name="mu" unicode="&#xb5;" horiz-adv-x="1110" 
d="M344 1065l-125 -592q-16 -76 -16 -139q0 -244 225 -244q257 0 348 418l121 557h139l-164 -770q-22 -103 -22 -133q0 -66 68 -66q16 0 36 2l-20 -110q-42 -11 -86 -11q-137 0 -137 146v14q-88 -162 -299 -162q-189 0 -269 156l-114 -557h-140l316 1491h139z" />
    <glyph glyph-name="partialdiff" unicode="&#x2202;" horiz-adv-x="1034" 
d="M752 592q24 166 24 309q0 326 -155 326q-34 0 -108 -68.5t-103 -68.5q-31 0 -52.5 20t-21.5 47q0 62 64 107t155 45q165 0 264 -151t99 -406q0 -332 -135.5 -555.5t-333.5 -223.5q-143 0 -233.5 107t-90.5 278q0 179 109 304.5t262 125.5q191 0 256 -196zM711 463
q0 258 -179 258q-114 0 -187 -125t-73 -322q0 -251 179 -251q112 0 186 125.5t74 314.5z" />
    <glyph glyph-name="summation" unicode="&#x3a3;" horiz-adv-x="1317" 
d="M49 1473h1223v-144h-1014l705 -766l-740 -813h1057v-143h-1266v133l744 821l-709 772v140z" />
    <glyph glyph-name="product" unicode="&#x220f;" horiz-adv-x="1509" 
d="M160 1473h1188v-1866h-168v1718h-852v-1718h-168v1866z" />
    <glyph glyph-name="pi" unicode="&#x3c0;" horiz-adv-x="1171" 
d="M1120 944h-182l-115 -541q-30 -141 -30 -188q0 -106 110 -106q49 0 92 9l-26 -118q-56 -16 -101 -16q-213 0 -213 202q0 86 56 351l86 407h-365l-199 -944h-139l199 944h-39q-106 0 -127 -131h-131q25 144 88.5 198t214.5 54h848z" />
    <glyph glyph-name="integral" unicode="&#x222b;" horiz-adv-x="985" 
d="M293 -272q104 0 117 713l4 196q11 484 97.5 697.5t268.5 213.5q70 0 114 -37t44 -96q0 -104 -107 -104q-46 0 -79 36q-22 24 -40 67q-16 36 -18 36q-104 0 -116 -623q-3 -145 -7 -289q-15 -493 -101 -703q-85 -206 -267 -206q-69 0 -113.5 36t-44.5 91q0 111 113 111
q73 0 102 -68q4 -10 7 -33q4 -38 26 -38z" />
    <glyph glyph-name="Omega" unicode="&#x3a9;" horiz-adv-x="1579" 
d="M1462 139v-139h-581v127q419 251 419 668q0 260 -141.5 420.5t-367.5 160.5q-228 0 -370 -160t-142 -419q0 -422 419 -670v-127h-581v139h344q-340 261 -340 645q0 320 188.5 524.5t481.5 204.5q292 0 480.5 -204t188.5 -523q0 -383 -342 -647h344z" />
    <glyph glyph-name="logicalnot" unicode="&#xac;" horiz-adv-x="1706" 
d="M1452 858v-502h-96v402h-1102v100h1198z" />
    <glyph glyph-name="radical" unicode="&#x221a;" horiz-adv-x="1276" 
d="M1276 1636v-71h-125l-594 -1606h-41l-328 899l-114 -39l-19 58l246 86l272 -746l525 1419h178z" />
    <glyph glyph-name="approxequal" unicode="&#x2248;" horiz-adv-x="1706" 
d="M1530 469q-208 -145 -387 -145q-68 0 -291 69.5t-287 69.5q-153 0 -387 -160v111q210 145 387 145q76 0 298.5 -68.5t279.5 -68.5q164 0 387 158v-111zM1530 807q-204 -145 -387 -145q-70 0 -292 69.5t-286 69.5q-153 0 -387 -160v113q209 145 387 145q76 0 298.5 -69.5
t279.5 -69.5q158 0 387 158v-111z" />
    <glyph glyph-name="Delta" unicode="&#x2206;" horiz-adv-x="1346" 
d="M1139 139l-467 1186l-465 -1186h932zM766 1473l590 -1473h-1366l590 1473h186z" />
    <glyph glyph-name="nonbreakingspace" unicode="&#xa0;" horiz-adv-x="1157" 
 />
    <glyph glyph-name="Agrave" unicode="&#xc0;" horiz-adv-x="1223" 
d="M100 0h-151l565 1456h172l563 -1456h-153l-174 457h-648zM872 588l-276 731l-272 -731h548zM631 1597l-269 350h152l209 -350h-92z" />
    <glyph glyph-name="Atilde" unicode="&#xc3;" horiz-adv-x="1223" 
d="M100 0h-151l565 1456h172l563 -1456h-153l-174 457h-648zM872 588l-276 731l-272 -731h548zM887 1849q-53 -184 -191 -184q-34 0 -65 10l-97 31q-25 8 -53 8q-61 0 -92 -74h-80q43 185 195 185q24 0 53 -9l96 -30q35 -11 56 -11q64 0 96 74h82z" />
    <glyph glyph-name="Otilde" unicode="&#xd5;" horiz-adv-x="1612" 
d="M211 735q0 -266 173 -446t427 -180q248 0 419 182t171 448q0 249 -176.5 428t-423.5 179q-167 0 -311 -95.5t-219 -255.5q-60 -127 -60 -260zM61 737q0 313 228 537q215 211 514 211q305 0 522 -213q223 -219 223 -535q0 -309 -192 -520q-223 -246 -555 -246
q-314 0 -527 220.5t-213 545.5zM1096 1849q-53 -184 -191 -184q-34 0 -65 10l-97 31q-25 8 -53 8q-61 0 -92 -74h-80q43 185 195 185q24 0 53 -9l96 -30q35 -11 56 -11q64 0 96 74h82z" />
    <glyph glyph-name="divide" unicode="&#xf7;" horiz-adv-x="1706" 
d="M854 365q45 0 76 -31t31 -76q0 -44 -31 -75t-76 -31t-75.5 31t-30.5 75t31 75.5t75 31.5zM1452 659v-98h-1198v98h1198zM854 1071q44 0 75.5 -32t31.5 -76q0 -45 -31 -76t-76 -31t-75.5 30.5t-30.5 76.5q0 44 31.5 76t74.5 32z" />
    <glyph glyph-name="lozenge" unicode="&#x25ca;" horiz-adv-x="1012" 
d="M506 1409l-385 -817l385 -825l385 825zM506 1653l500 -1061l-500 -1069l-500 1069z" />
    <glyph glyph-name="ydieresis" unicode="&#xff;" horiz-adv-x="944" 
d="M-33 1100h162l340 -893l356 893h164l-594 -1456h-151l147 358zM586 1313v164h143v-164h-143zM217 1313v164h141v-164h-141z" />
    <glyph glyph-name="Ydieresis" unicode="&#x178;" horiz-adv-x="981" 
d="M557 535v-535h-141v537l-465 919h164l372 -756l377 756h160zM605 1663v164h143v-164h-143zM236 1663v164h141v-164h-141z" />
    <glyph glyph-name="Acircumflex" unicode="&#xc2;" horiz-adv-x="1223" 
d="M100 0h-151l565 1456h172l563 -1456h-153l-174 457h-648zM872 588l-276 731l-272 -731h548zM322 1597l200 350h152l200 -350h-92l-184 264l-184 -264h-92z" />
    <glyph glyph-name="Ecircumflex" unicode="&#xca;" horiz-adv-x="1028" 
d="M279 803h612v-144h-612v-518h612v-141h-756v1456h756v-143h-612v-510zM252 1597l200 350h152l200 -350h-92l-184 264l-184 -264h-92z" />
    <glyph glyph-name="Aacute" unicode="&#xc1;" horiz-adv-x="1223" 
d="M100 0h-151l565 1456h172l563 -1456h-153l-174 457h-648zM872 588l-276 731l-272 -731h548zM565 1597h-92l209 350h152z" />
    <glyph glyph-name="Edieresis" unicode="&#xcb;" horiz-adv-x="1028" 
d="M279 803h612v-144h-612v-518h612v-141h-756v1456h756v-143h-612v-510zM641 1663v164h143v-164h-143zM272 1663v164h141v-164h-141z" />
    <glyph glyph-name="Egrave" unicode="&#xc8;" horiz-adv-x="1028" 
d="M279 803h612v-144h-612v-518h612v-141h-756v1456h756v-143h-612v-510zM561 1597l-269 350h152l209 -350h-92z" />
    <glyph glyph-name="Iacute" unicode="&#xcd;" horiz-adv-x="412" 
d="M276 0h-143v1456h143v-1456zM174 1597h-92l209 350h152z" />
    <glyph glyph-name="Icircumflex" unicode="&#xce;" horiz-adv-x="412" 
d="M276 0h-143v1456h143v-1456zM-69 1597l200 350h152l200 -350h-92l-184 264l-184 -264h-92z" />
    <glyph glyph-name="Idieresis" unicode="&#xcf;" horiz-adv-x="412" 
d="M276 0h-143v1456h143v-1456zM320 1663v164h143v-164h-143zM-49 1663v164h141v-164h-141z" />
    <glyph glyph-name="Igrave" unicode="&#xcc;" horiz-adv-x="412" 
d="M276 0h-143v1456h143v-1456zM240 1597l-269 350h152l209 -350h-92z" />
    <glyph glyph-name="Oacute" unicode="&#xd3;" horiz-adv-x="1612" 
d="M211 735q0 -266 173 -446t427 -180q248 0 419 182t171 448q0 249 -176.5 428t-423.5 179q-167 0 -311 -95.5t-219 -255.5q-60 -127 -60 -260zM61 737q0 313 228 537q215 211 514 211q305 0 522 -213q223 -219 223 -535q0 -309 -192 -520q-223 -246 -555 -246
q-314 0 -527 220.5t-213 545.5zM774 1597h-92l209 350h152z" />
    <glyph glyph-name="Ocircumflex" unicode="&#xd4;" horiz-adv-x="1612" 
d="M211 735q0 -266 173 -446t427 -180q248 0 419 182t171 448q0 249 -176.5 428t-423.5 179q-167 0 -311 -95.5t-219 -255.5q-60 -127 -60 -260zM61 737q0 313 228 537q215 211 514 211q305 0 522 -213q223 -219 223 -535q0 -309 -192 -520q-223 -246 -555 -246
q-314 0 -527 220.5t-213 545.5zM531 1597l200 350h152l200 -350h-92l-184 264l-184 -264h-92z" />
    <glyph glyph-name="apple" unicode="&#xf000;" horiz-adv-x="1618" 
d="M836 1216q-2 12 -2 37q0 125 95.5 230t235.5 131q2 -20 2 -62q0 -127 -104 -235q-99 -103 -203 -103h-8q-2 0 -7.5 1t-8.5 1zM1505 403q-113 -245 -204 -341.5t-205 -96.5q-35 0 -131.5 33t-122.5 33q-31 0 -131 -33t-127 -33q-129 0 -258 176q-213 291 -213 596
q0 219 125 356.5t323 137.5q50 0 154.5 -34t124.5 -34q17 0 121 34t153 34q218 0 359 -162q-201 -128 -201 -328q0 -233 233 -338z" />
    <glyph glyph-name="Ograve" unicode="&#xd2;" horiz-adv-x="1612" 
d="M211 735q0 -266 173 -446t427 -180q248 0 419 182t171 448q0 249 -176.5 428t-423.5 179q-167 0 -311 -95.5t-219 -255.5q-60 -127 -60 -260zM61 737q0 313 228 537q215 211 514 211q305 0 522 -213q223 -219 223 -535q0 -309 -192 -520q-223 -246 -555 -246
q-314 0 -527 220.5t-213 545.5zM840 1597l-269 350h152l209 -350h-92z" />
    <glyph glyph-name="Uacute" unicode="&#xda;" horiz-adv-x="1157" 
d="M113 1456h143v-921q0 -107 9 -160q24 -150 143 -224q75 -47 170 -47q323 0 323 461v891h141v-926q0 -561 -454 -561q-245 0 -360 136t-115 425v926zM547 1597h-92l209 350h152z" />
    <glyph glyph-name="Ucircumflex" unicode="&#xdb;" horiz-adv-x="1157" 
d="M113 1456h143v-921q0 -107 9 -160q24 -150 143 -224q75 -47 170 -47q323 0 323 461v891h141v-926q0 -561 -454 -561q-245 0 -360 136t-115 425v926zM304 1597l200 350h152l200 -350h-92l-184 264l-184 -264h-92z" />
    <glyph glyph-name="Ugrave" unicode="&#xd9;" horiz-adv-x="1157" 
d="M113 1456h143v-921q0 -107 9 -160q24 -150 143 -224q75 -47 170 -47q323 0 323 461v891h141v-926q0 -561 -454 -561q-245 0 -360 136t-115 425v926zM613 1597l-269 350h152l209 -350h-92z" />
    <glyph glyph-name="franc" unicode="&#x20a3;" horiz-adv-x="1503" 
d="M135 0v1456h719v-143h-578v-510h578v-144h-578v-659h-141zM1245 0h-143v1100h133v-127q99 139 257 143l1 -153q-134 -12 -191 -80t-57 -219v-664z" />
    <glyph glyph-name="Gbreve" unicode="&#x11e;" horiz-adv-x="1612" 
d="M643 698h905q-18 -318 -229 -522.5t-518 -204.5q-315 0 -527.5 220t-212.5 546q0 312 228 537q214 211 530 211q212 0 380.5 -102.5t270.5 -292.5h-176q-201 256 -483 256q-250 0 -424 -179t-174 -432q0 -267 172.5 -446.5t427.5 -179.5q201 0 359 128.5t206 331.5h-735
v129zM533 1904h79q12 -145 195 -145q180 0 193 145h81q-17 -262 -274 -262t-274 262z" />
    <glyph glyph-name="gbreve" unicode="&#x11f;" horiz-adv-x="1280" 
d="M301 -90q68 -203 320 -203q188 0 301.5 125t113.5 334v29q-161 -220 -407 -220q-248 0 -412 165.5t-164 412.5q0 243 162 408t401 165q268 0 420 -206v180h138v-918q0 -288 -144.5 -450t-398.5 -162q-187 0 -321 92.5t-173 247.5h164zM203 559q0 -192 122 -322.5
t296 -130.5q164 0 288.5 131t124.5 306q0 187 -122.5 320.5t-290.5 133.5q-173 0 -295.5 -127t-122.5 -311zM367 1554h79q12 -145 195 -145q180 0 193 145h81q-17 -262 -274 -262t-274 262z" />
    <glyph glyph-name="Idotaccent" unicode="&#x130;" horiz-adv-x="412" 
d="M276 0h-143v1456h143v-1456zM131 1669v176h152v-176h-152z" />
    <glyph glyph-name="Scedilla" unicode="&#x15e;" horiz-adv-x="952" 
d="M57 416h138q4 -135 76.5 -215t190.5 -80q127 0 201.5 79.5t74.5 215.5q0 198 -306 299l-36 12q-160 55 -230.5 139.5t-70.5 220.5q0 174 108.5 285t280.5 111q164 0 260 -101t107 -284h-135q-23 248 -232 248q-108 0 -176.5 -70.5t-68.5 -179.5q0 -110 86 -174
q45 -34 176 -76q79 -25 114 -39q142 -55 204.5 -140.5t62.5 -224.5q0 -212 -115.5 -341.5t-306.5 -129.5q-178 0 -289 122.5t-114 322.5zM477 -111h20q220 0 220 -172q0 -176 -228 -176q-111 0 -252 39v78q161 -35 238 -35q129 0 129 90q0 105 -143 105q-29 0 -47 -2v184h63
v-111z" />
    <glyph glyph-name="scedilla" unicode="&#x15f;" horiz-adv-x="797" 
d="M43 346h145v-4q0 -103 59 -170.5t146 -67.5q83 0 138 52t55 131q0 80 -44 128t-157 89q-177 64 -239 133q-56 64 -56 182q0 129 93.5 219t226.5 90q141 0 224 -80t89 -223h-151q-11 164 -171 164q-69 0 -115 -46.5t-46 -115.5q0 -92 82 -143q32 -20 117 -48
q101 -33 102 -34q200 -85 200 -303q0 -142 -99 -235t-251 -93q-155 0 -249 101.5t-99 273.5zM399 -111h20q220 0 220 -172q0 -176 -228 -176q-111 0 -252 39v78q161 -35 238 -35q129 0 129 90q0 105 -143 105q-29 0 -47 -2v184h63v-111z" />
    <glyph glyph-name="Cacute" unicode="&#x106;" horiz-adv-x="1540" 
d="M1296 1079q-190 264 -495 264q-242 0 -415 -179.5t-173 -428.5q0 -263 171 -444.5t417 -181.5q304 0 485 251h170q-100 -186 -268 -287.5t-377 -101.5q-321 0 -535.5 219t-214.5 547q0 311 228 537q213 211 514 211q217 0 390.5 -106t274.5 -300h-172zM768 1597h-92
l209 350h152z" />
    <glyph glyph-name="cacute" unicode="&#x107;" horiz-adv-x="1241" 
d="M993 762q-127 235 -381 235q-171 0 -289 -129.5t-118 -318.5q0 -190 119 -317.5t294 -127.5q268 0 375 240h156q-64 -179 -201 -277t-323 -98q-238 0 -403 169t-165 409q0 244 166.5 413.5t405.5 169.5q179 0 315.5 -96.5t204.5 -271.5h-156zM588 1247h-92l209 350h152z
" />
    <glyph glyph-name="Ccaron" unicode="&#x10c;" horiz-adv-x="1540" 
d="M1296 1079q-190 264 -495 264q-242 0 -415 -179.5t-173 -428.5q0 -263 171 -444.5t417 -181.5q304 0 485 251h170q-100 -186 -268 -287.5t-377 -101.5q-321 0 -535.5 219t-214.5 547q0 311 228 537q213 211 514 211q217 0 390.5 -106t274.5 -300h-172zM525 1947h92
l184 -262l184 262h92l-200 -348h-152z" />
    <glyph glyph-name="ccaron" unicode="&#x10d;" horiz-adv-x="1241" 
d="M993 762q-127 235 -381 235q-171 0 -289 -129.5t-118 -318.5q0 -190 119 -317.5t294 -127.5q268 0 375 240h156q-64 -179 -201 -277t-323 -98q-238 0 -403 169t-165 409q0 244 166.5 413.5t405.5 169.5q179 0 315.5 -96.5t204.5 -271.5h-156zM345 1597h92l184 -262
l184 262h92l-200 -348h-152z" />
    <glyph glyph-name="dcroat" unicode="&#x111;" horiz-adv-x="1305" 
d="M1042 539q0 187 -124 320.5t-293 133.5q-175 0 -298.5 -127t-123.5 -309q0 -192 124 -323.5t302 -131.5q164 0 288.5 131.5t124.5 305.5zM1044 926q-6 104 -6 245v23h-293v109h293v153h142v-153h149v-109h-149v-1194h-138v166q-161 -195 -421 -195q-238 0 -401 168
t-163 412q0 243 161.5 408t402.5 165q263 0 423 -198z" />
    <glyph glyph-name="sfthyphen" horiz-adv-x="659" 
d="M563 616v-133h-469v133h469z" />
    <glyph glyph-name="ch270" horiz-adv-x="578" 
d="M197 729q0 39 27 66.5t65 27.5t66 -28t28 -66t-27.5 -65t-66.5 -27t-65.5 27t-26.5 65z" />
    </font>
</defs>
</svg>
